{"title":"I Spit On Your Grave (1978) - REPACK (AC-3 Audio)  [akhiugo]","uid":4729287,"size":1223438336,"categoryP":"video","categoryS":"movies","magnet":"?xt=urn:btih:ba18f427c18dee420d9ee9d74b72e20e733873f8&amp;dn=I+Spit+On+Your+Grave+%281978%29+-+REPACK+%28AC-3+Audio%29++%5Bakhiugo%5D&amp;tr=udp%3A%2F%2Ftracker.openbittorrent.com%3A80&amp;tr=udp%3A%2F%2Fopen.demonii.com%3A1337&amp;tr=udp%3A%2F%2Ftracker.coppersurfer.tk%3A6969&amp;tr=udp%3A%2F%2Fexodus.desync.com%3A6969","seeders":2,"leechers":0,"uploader":"akhiugo","files":-1,"time":1234917288,"description":"This is a complete re-working of this DVDRip, ripped again from scratch:\n\nOriginal here: &lt;a href=&quot;\nhttps://thepiratebay.se/torrent/4477401/&quot; rel=&quot;nofollow&quot; target=&quot;_NEW&quot;&gt;\nhttps://thepiratebay.se/torrent/4477401/&lt;/a&gt;\n\nChanges:\nAspect ratio has been corrected (not much needed), Bitrate increased improving picture quality, XviD this time not DivX (no big deal), and AC-3 audio whereas the previous one was mp3 format so a big improvement there. Basically ripped in a totally different way with better results all round this time. Original not nuked as still good quality so keep seeding/leeching that as required. I'll be re-doing all my early movies in a similar way as and when I get time.\n\n_______________________________________________________________________\n\n\n\nI Spit On Your Grave AKA Day Of The Woman (1978)\n------------------------------------------------\n\nThe film follows Jennifer, a writer who is working on a new novel and needs to get out of the city to finish it. She hires a riverside apartment in upstate New York to finish her novel, attracting the attention of a number of rowdy male locals. They catch Jennifer one day and strip her naked for the village idiot (Matthew) and rape her. Jennifer is later attacked and raped a further two times by the four degenerates, and her novel is also destroyed. But Jennifer slowly recovers and in her now-twisted, psychotic mind, she then begins to seek revenge on the four men who raped her. \n \nORIGINAL UNCUT VERSION\n________________________________________________________________________\n\n\n\n\nGeneral\nComplete name                    : ISOYG.avi\nFormat                           : AVI\nFormat/Info                      : Audio Video Interleave\nFile size                        : 1.14 GiB\nDuration                         : 1h 41mn\nOverall bit rate                 : 1 615 Kbps\nWriting application              : VirtualDubMod 1.5.4.1 (build 2178/release)\nWriting library                  : VirtualDubMod build 2178/release\n\nVideo\nFormat                           : MPEG-4 Visual\nFormat profile                   : Streaming Video@L1\nFormat settings, BVOP            : Yes\nFormat settings, QPel            : No\nFormat settings, GMC             : No warppoints\nFormat settings, Matrix          : Custom\nCodec ID                         : XVID\nCodec ID/Hint                    : XviD\nDuration                         : 1h 41mn\nBit rate                         : 1 416 Kbps\nWidth                            : 720 pixels\nHeight                           : 400 pixels\nDisplay aspect ratio             : 16/9\nFrame rate                       : 23.976 fps\nResolution                       : 24 bits\nColorimetry                      : 4:2:0\nScan type                        : Progressive\nBits/(Pixel*Frame)               : 0.205\nStream size                      : 1 023 MiB (88%)\nWriting library                  : XviD 1.2.1 (UTC 2008-12-04)\n\nAudio\nFormat                           : AC-3\nFormat/Info                      : Audio Coding 3\nCodec ID                         : 2000\nDuration                         : 1h 40mn\nBit rate mode                    : Constant\nBit rate                         : 192 Kbps\nChannel(s)                       : 2 channels\nChannel positions                : L R\nSampling rate                    : 48.0 KHz\nStream size                      : 139 MiB (12%)\nAlignment                        : Split accross interleaves\nInterleave, duration             : 96 ms (2.30 video frames)\nInterleave, preload duration     : 96 ms\n\n\nPlease help your fellow pirates by seeding after download!\n","torrent":{"xt":"urn:btih:ba18f427c18dee420d9ee9d74b72e20e733873f8","amp;dn":"I+Spit+On+Your+Grave+%281978%29+-+REPACK+%28AC-3+Audio%29++%5Bakhiugo%5D","amp;tr":["udp%3A%2F%2Ftracker.openbittorrent.com%3A80","udp%3A%2F%2Fopen.demonii.com%3A1337","udp%3A%2F%2Ftracker.coppersurfer.tk%3A6969","udp%3A%2F%2Fexodus.desync.com%3A6969"],"infoHash":"ba18f427c18dee420d9ee9d74b72e20e733873f8","infoHashBuffer":{"type":"Buffer","data":[186,24,244,39,193,141,238,66,13,158,233,215,75,114,226,14,115,56,115,248]},"announce":[],"urlList":[]}}